<svg id="Calque_1" data-name="Calque 1" xmlns="http://www.w3.org/2000/svg" viewBox="0 0 1684.86 1080"><defs><style>.cls-1{fill:#fcf0ec;}</style></defs><path class="cls-1" d="M.43,500.72c0,400.75.87,501.45,3.79,501.45,1.75,0,8.16-1.45,13.7-3.18,18.95-5.77,42.27-11,49-11.25,4.37,0,6.41,1.73,6.41,5.77,0,3.75,1.46,5.19,4.38,4,6.41-2.6,23.32,4.91,18.36,7.79-7.29,4.62,2.62,8.94,21.28,9.23,10.2,0,21.28,1.73,24.49,4,3.2,2,9.62,3.75,14.57,3.75,6.71,0,7.87.87,4.37,2.89a24.6,24.6,0,0,1-10.49,2.88c-9.62,0-12.24,17.89-3.21,20.78,2,.57,11.66.57,21.57,0,14-.87,18.37-2,18.37-5.48s2-4,7.87-2.31c4.37.86,9,3.17,9.91,4.9.87,1.44,6.12,3.18,11.66,3.75,5.54.29,11.95,1.73,14.57,2.89,2.92.86,5.83.58,7-1.16.87-1.73,4.66-3.17,8.16-3.46,6.12,0,6.12-.29.58-2.59a188.68,188.68,0,0,0-23.31-5.78c-31.49-6.34-43.44-11.25-38.48-16.15,2.91-3.18,20.69-2,21.86,1.44.87,2.6,2,2.6,5,.29s5.83-2.31,10.49,0c3.5,2,20.11,4.33,37.31,5.48,16.91,1.15,33.52,3.46,36.73,5.19,7.58,4,30.61,6.35,87.16,8.08,40.52,1.45,46.93,1.16,51.59-3.17,2.92-2.6,5-5.77,4.08-6.93-1.45-2.3-1.16-2.59,37.9-5.77,34.4-2.59,39.35-2,59.76,6.35,7,3.18,32.93,11.25,57.71,18.47,48.68,14.13,48.1,14.13,71.13-.29,11.66-7.21,13.7-10.1,14-17.6a21.76,21.76,0,0,1,7.29-15.58c4.08-3.75,7.28-8.66,7.28-10.68s4.67-6.06,10.21-8.65c12.24-5.77,11.66-11.25-.59-10.39-4.95.58-10.49-.86-12.24-3.17C686,980,695.65,975.05,714,975.33c9,.29,18.94-.86,21.86-2.59,3.79-2,6.7-1.73,8.74.29,4.38,4.32,7.87,4,7.87-1.16,0-2.88-2.91-4.33-8.16-4.33-12.24,0-13.7-3.46-3.5-7.5,7.87-3.46,10.21-3.17,19.24,2,11.08,6.06,27.4,9.24,27.4,5.2a2.87,2.87,0,0,0-2-2.89c-16.9-1.44-24.19-4.62-24.19-9.81,0-5.77,9.62-5.48,30.9,1.16A343.13,343.13,0,0,0,828,964.37c10.2,1.73,21.57,4.91,25.36,7.5,8.75,5.77,35,9.52,32.07,4.91q-2.19-3.46,5.24-3.47c7.87,0,12.83,4.62,7,6.64-2,.58,2,2.89,9,4.62,11.95,3.46,13.11,3.17,21-4.33,7.29-6.93,9.33-7.5,23.62-5.77,14,1.73,16.9,1.15,27.1-5.77,9.62-6.35,13.71-7.21,25.37-6.35,10.78,1.16,14,.58,14-2.6,0-2.3,1.45-3.17,2.91-2.3,1.75,1.15,2.33,4.32,1.46,7.21-1.17,3.75.87,6.06,7.87,9.23,19.53,8.66,28.57,11.54,32.06,10.1,3.5-1.15,34.69,2,48.1,5.19,4.08.87,8.46,6.06,11.95,14.14,4.08,8.95,7.87,13,13.12,13.85,4.37.87,8.16,0,8.75-1.44.58-1.73,3.2-2,6.41-.87,4.66,1.73,4.95,2.6,1.46,4.91q-4.38,2.6,12.24.86c11.37-1.44,21-.57,30.61,2.6a224.49,224.49,0,0,0,31.48,6.35c15.16,1.73,18.65,1.15,25.36-4,5.54-4.62,12-6.06,23.61-6.06,10.2,0,16.62-1.44,17.49-3.75.87-1.73,1.75-.58,1.75,2.88.29,10.39,22.74,19.62,55.67,23.37,15.16,1.73,34.11,5.2,42.27,7.79,9.91,3.47,14.58,4,15.45,1.73.58-1.73,3.21-3.17,5.83-3.17,2.92,0,7.58-2,10.5-4.33,3.2-2.31,9.91-4.33,14.86-4.33,9.91,0,25.07-8.36,15.45-8.65-7.87,0-6.41-3.75,3.79-9.23,7-4.33,10.2-4.62,15.16-1.73,5.54,2.88,5.83,2.59,2.62-1.16-2.91-3.75-2.91-5.48,1.17-9.23,2.62-2.6,7-4.33,9.62-3.46,5.54,1.44,44.6,5.19,65.88,6.34,8.16.58,22.15,1.73,31.48,2.6,10.49,1.44,16.61.87,16.61-.87,0-4.9,32.07-10.38,35.86-6.63,2.62,2.6,2.33,4-.59,5.77-6.41,4,1.17,6.64,26.24,8.08,20.11,1.44,23,1.15,23-3.18,0-3.17-2.63-4.61-9-4.61-5.25,0-8.16-1.16-7-2.89s2.91-2.31,4.37-1.44c1.16.87,4.37.58,7-.29,4.38-1.73,4.67-47.6,4.67-503.47,0-275.82-.29-502-.59-502.31C1684.12,2.73,1305.17,1.87,842,1L.43-.44ZM748.12,947.35c1.17,1.73-1.46,2.88-5.83,2.88s-7-1.15-5.83-2.88c.88-1.73,3.5-2.89,5.83-2.89S747.25,945.62,748.12,947.35ZM923,979.09c-8.16,3.46-16.62,3.46-14.57,0,.87-1.74,6.12-2.89,11.07-2.6C927.39,976.49,928,977.07,923,979.09Zm-826.4,8.65A2.86,2.86,0,0,1,94,990.63a6.26,6.26,0,0,1-4.66-2.89c-.88-1.73.29-2.88,2.62-2.88C94.58,984.86,96.62,986,96.62,987.74ZM1455,1010.82a2.9,2.9,0,0,1-2.91,2.89,3.12,3.12,0,0,1-2.92-2.89,2.91,2.91,0,0,1,2.92-2.88A2.73,2.73,0,0,1,1455,1010.82Zm-1282.59,22.8c0,1.44-2,4-4.37,6.05-3.79,2.89-4.37,2.6-4.37-2.59,0-3.46,1.75-6.06,4.37-6.06C170.37,1031,172.41,1032.17,172.41,1033.62Z" transform="translate(-0.43 0.44)"/><path class="cls-1" d="M80.88,1007.65a2.93,2.93,0,0,0,.88,4.33,3,3,0,0,0,4.37-.87,2.93,2.93,0,0,0-.87-4.33A3,3,0,0,0,80.88,1007.65Z" transform="translate(-0.43 0.44)"/><path class="cls-1" d="M1490,1022.36c0,1.45,2,2,4.38,1.16,2.33-1.16,4.37-2.31,4.37-2.89s-2-1.15-4.37-1.15S1490,1020.63,1490,1022.36Z" transform="translate(-0.43 0.44)"/><path class="cls-1" d="M1462.58,1030.73c-.87,1.44.29,3.17,2.63,4.33,2.62.86,4.37,0,4.37-2.6C1469.58,1027.85,1464.91,1026.69,1462.58,1030.73Z" transform="translate(-0.43 0.44)"/><path class="cls-1" d="M118.49,1033.9a6.78,6.78,0,0,0,4.66,2.89c1.75,0,2-1.44,1.17-2.89a6,6,0,0,0-4.67-2.88C117.9,1031,117.61,1032.17,118.49,1033.9Z" transform="translate(-0.43 0.44)"/><path class="cls-1" d="M1157.68,1048.33c-3.5,2.31-3.5,2.89,1.16,4.62,3.79,1.44,4.08,2.59,1.75,4-6.12,3.75,7.87,6.34,14.28,2.88,5.54-2.88,5.83-3.17,1.17-8.65C1170.5,1044.87,1164.38,1044,1157.68,1048.33Z" transform="translate(-0.43 0.44)"/><path class="cls-1" d="M244.7,1056.12c2,.87,4.67.58,5.54-.29,1.17-.86-.58-1.73-3.79-1.44C243.25,1054.39,242.37,1055.25,244.7,1056.12Z" transform="translate(-0.43 0.44)"/><path class="cls-1" d="M267.44,1056.7c-2.62,3.75,8.45,8.36,25.36,10.67,6.71.87,20.11,3.18,29.73,5.48,9.62,2,19.53,3.76,21.87,3.76s9,1.15,14.86,2c8.17,1.73,10.79,1.15,12.25-2.6,2.33-5.77,3.2-5.77-41.69-13.56C281.72,1054.1,269.77,1053,267.44,1056.7Z" transform="translate(-0.43 0.44)"/><path class="cls-1" d="M1398.16,1059.87c-2.33,3.75,9.91,14.14,16,14.14,3.21,0,2.92-.58-1.16-2.89-4.08-2.59-4.37-3.75-1.75-5.48a4.29,4.29,0,0,0,1.75-5.48C1410.4,1056.12,1400.49,1056.12,1398.16,1059.87Z" transform="translate(-0.43 0.44)"/><path class="cls-1" d="M1425.85,1059.87c0,1.44,2,2,4.38,1.16,2.33-1.16,4.37-2.31,4.37-2.89s-2-1.15-4.37-1.15S1425.85,1058.14,1425.85,1059.87Z" transform="translate(-0.43 0.44)"/><path class="cls-1" d="M1419.44,1067.66c2,.87,4.67.58,5.54-.29,1.17-.86-.58-1.73-3.79-1.44C1418,1065.93,1417.11,1066.8,1419.44,1067.66Z" transform="translate(-0.43 0.44)"/></svg>