<?xml version="1.0" standalone="no"?>
<!DOCTYPE svg PUBLIC "-//W3C//DTD SVG 20010904//EN"
 "http://www.w3.org/TR/2001/REC-SVG-20010904/DTD/svg10.dtd">
<svg version="1.0" xmlns="http://www.w3.org/2000/svg"
 width="578.000000pt" height="432.000000pt" viewBox="0 0 578.000000 432.000000"
 preserveAspectRatio="xMidYMid meet">

<g transform="translate(0.000000,432.000000) scale(0.100000,-0.100000)"
fill="#000000" stroke="none">
<path d="M0 2568 c0 -1389 3 -1738 13 -1738 6 0 28 5 47 11 65 20 145 38 168
39 15 0 22 -6 22 -20 0 -13 5 -18 15 -14 22 9 80 -17 63 -27 -25 -16 9 -31 73
-32 35 0 73 -6 84 -14 11 -7 33 -13 50 -13 23 0 27 -3 15 -10 -8 -5 -25 -10
-36 -10 -33 0 -42 -62 -11 -72 7 -2 40 -2 74 0 48 3 63 7 63 19 0 12 7 14 27
8 15 -3 31 -11 34 -17 3 -5 21 -11 40 -13 19 -1 41 -6 50 -10 10 -3 20 -2 24
4 3 6 16 11 28 12 21 0 21 1 2 9 -11 4 -47 14 -80 20 -108 22 -149 39 -132 56
10 11 71 7 75 -5 3 -9 7 -9 17 -1 10 8 20 8 36 0 12 -7 69 -15 128 -19 58 -4
115 -12 126 -18 26 -14 105 -22 299 -28 139 -5 161 -4 177 11 10 9 17 20 14
24 -5 8 -4 9 130 20 118 9 135 7 205 -22 24 -11 113 -39 198 -64 167 -49 165
-49 244 1 40 25 47 35 48 61 0 19 9 39 25 54 14 13 25 30 25 37 0 7 16 21 35
30 42 20 40 39 -2 36 -17 -2 -36 3 -42 11 -19 23 14 40 77 39 31 -1 65 3 75 9
13 7 23 6 30 -1 15 -15 27 -14 27 4 0 10 -10 15 -28 15 -42 0 -47 12 -12 26
27 12 35 11 66 -7 38 -21 94 -32 94 -18 0 5 -3 9 -7 10 -58 5 -83 16 -83 34 0
20 33 19 106 -4 32 -10 88 -24 123 -30 35 -6 74 -17 87 -26 30 -20 120 -33
110 -17 -5 8 1 12 18 12 27 0 44 -16 24 -23 -7 -2 7 -10 31 -16 41 -12 45 -11
72 15 25 24 32 26 81 20 48 -6 58 -4 93 20 33 22 47 25 87 22 37 -4 48 -2 48
9 0 8 5 11 10 8 6 -4 8 -15 5 -25 -4 -13 3 -21 27 -32 67 -30 98 -40 110 -35
12 4 119 -7 165 -18 14 -3 29 -21 41 -49 14 -31 27 -45 45 -48 15 -3 28 0 30
5 2 6 11 7 22 3 16 -6 17 -9 5 -17 -10 -6 4 -7 42 -3 39 5 72 2 105 -9 26 -8
75 -18 108 -22 52 -6 64 -4 87 14 19 16 41 21 81 21 35 0 57 5 60 13 3 6 6 2
6 -10 1 -36 78 -68 191 -81 52 -6 117 -18 145 -27 34 -12 50 -14 53 -6 2 6 11
11 20 11 10 0 26 7 36 15 11 8 34 15 51 15 34 0 86 29 53 30 -27 0 -22 13 13
32 24 15 35 16 52 6 19 -10 20 -9 9 4 -10 13 -10 19 4 32 9 9 24 15 33 12 19
-5 153 -18 226 -22 28 -2 76 -6 108 -9 36 -5 57 -3 57 3 0 17 110 36 123 23 9
-9 8 -14 -2 -20 -22 -14 4 -23 90 -28 69 -5 79 -4 79 11 0 11 -9 16 -31 16
-18 0 -28 4 -24 10 4 6 10 8 15 5 4 -3 15 -2 24 1 15 6 16 165 16 1745 0 956
-1 1740 -2 1741 -2 2 -1302 5 -2891 8 l-2887 5 0 -1737z m2565 -1548 c4 -6 -5
-10 -20 -10 -15 0 -24 4 -20 10 3 6 12 10 20 10 8 0 17 -4 20 -10z m600 -110
c-28 -12 -57 -12 -50 0 3 6 21 10 38 9 27 0 29 -2 12 -9z m-2835 -30 c0 -5 -4
-10 -9 -10 -6 0 -13 5 -16 10 -3 6 1 10 9 10 9 0 16 -4 16 -10z m4660 -80 c0
-5 -4 -10 -10 -10 -5 0 -10 5 -10 10 0 6 5 10 10 10 6 0 10 -4 10 -10z m-4400
-79 c0 -5 -7 -14 -15 -21 -13 -10 -15 -9 -15 9 0 12 6 21 15 21 8 0 15 -4 15
-9z"/>
<path d="M276 811 c-4 -5 -2 -12 3 -15 5 -4 12 -2 15 3 4 5 2 12 -3 15 -5 4
-12 2 -15 -3z"/>
<path d="M5110 760 c0 -5 7 -7 15 -4 8 4 15 8 15 10 0 2 -7 4 -15 4 -8 0 -15
-4 -15 -10z"/>
<path d="M5016 731 c-3 -5 1 -11 9 -15 9 -3 15 0 15 9 0 16 -16 20 -24 6z"/>
<path d="M405 720 c3 -5 11 -10 16 -10 6 0 7 5 4 10 -3 6 -11 10 -16 10 -6 0
-7 -4 -4 -10z"/>
<path d="M3970 670 c-12 -8 -12 -10 4 -16 13 -5 14 -9 6 -14 -21 -13 27 -22
49 -10 19 10 20 11 4 30 -19 22 -40 25 -63 10z"/>
<path d="M838 643 c7 -3 16 -2 19 1 4 3 -2 6 -13 5 -11 0 -14 -3 -6 -6z"/>
<path d="M916 641 c-9 -13 29 -29 87 -37 23 -3 69 -11 102 -19 33 -7 67 -13
75 -13 8 0 31 -4 51 -7 28 -6 37 -4 42 9 8 20 11 20 -143 47 -165 29 -206 33
-214 20z"/>
<path d="M4795 630 c-8 -13 34 -49 55 -49 11 0 10 2 -4 10 -14 9 -15 13 -6 19
7 4 9 13 6 19 -9 14 -43 14 -51 1z"/>
<path d="M4890 630 c0 -5 7 -7 15 -4 8 4 15 8 15 10 0 2 -7 4 -15 4 -8 0 -15
-4 -15 -10z"/>
<path d="M4868 603 c7 -3 16 -2 19 1 4 3 -2 6 -13 5 -11 0 -14 -3 -6 -6z"/>
</g>
</svg>
